<svg xmlns="http://www.w3.org/2000/svg" width="20" height="20" viewBox="0 0 20 20">
  <g id="icons8_Google_2" transform="translate(-4 -4)">
    <path id="Path_72" data-name="Path 72" d="M23.8,12.041H23V12H14v4h5.652A6.006,6.006,0,1,1,17.98,9.52l2.828-2.828a9.977,9.977,0,1,0,3,5.35Z" fill="#ffc107"/>
    <path id="Path_73" data-name="Path 73" d="M6.3,9.346l3.287,2.41A5.987,5.987,0,0,1,19.133,9.52l2.828-2.828A9.98,9.98,0,0,0,6.3,9.346Z" transform="translate(-1.152)" fill="#ff3d00"/>
    <path id="Path_74" data-name="Path 74" d="M15.1,36.027a9.958,9.958,0,0,0,6.705-2.6l-3.1-2.619a5.984,5.984,0,0,1-9.25-2.758L6.2,30.566A9.992,9.992,0,0,0,15.1,36.027Z" transform="translate(-1.098 -12.027)" fill="#4caf50"/>
    <path id="Path_75" data-name="Path 75" d="M33.8,20.041H33V20H24v4h5.652a6.027,6.027,0,0,1-2.045,2.785h0l3.1,2.619A9.681,9.681,0,0,0,34,22,9.977,9.977,0,0,0,33.8,20.041Z" transform="translate(-10 -8)" fill="#1976d2"/>
  </g>
</svg>
